<svg xmlns="http://www.w3.org/2000/svg" width="24" height="24" viewBox="0 0 24 24"><path d="M12 2c5.514 0 10 4.486 10 10s-4.486 10-10 10-10-4.486-10-10 4.486-10 10-10zm0-2c-6.627 0-12 5.373-12 12s5.373 12 12 12 12-5.373 12-12-5.373-12-12-12zm-2.5 11.5v1.2h1.985c-.08.514-.601 1.51-1.985 1.51-1.194 0-2.17-.99-2.17-2.21s.976-2.21 2.17-2.21c.681 0 1.135.29 1.396.541l.949-.916c-.61-.57-1.401-.915-2.345-.915-1.936 0-3.5 1.565-3.5 3.5s1.564 3.5 3.5 3.5c2.02 0 3.359-1.419 3.359-3.419 0-.23-.024-.405-.055-.58h-3.304zm0 0 8.5 1h-1.5v1.5h-1v-1.5h-1.5v-1h1.5v-1.5h1v1.5h1.5v1z"/></svg>