<svg width="18" height="18" viewBox="0 0 18 18" fill="none" xmlns="http://www.w3.org/2000/svg">
<path fill-rule="evenodd" clip-rule="evenodd" d="M7.61517 17.9244C7.73567 17.9381 8.28086 18 8.89435 18H9C9.6118 18 10.1585 17.938 10.2792 17.9244C10.2924 17.9229 10.3005 17.9219 10.303 17.9217C10.6122 17.8826 10.8567 17.64 10.8998 17.3309L11.0954 15.9535C11.5239 15.8243 11.9407 15.6561 12.3398 15.4487L13.4707 16.3076C13.7191 16.4974 14.0654 16.4954 14.312 16.3037C14.3315 16.29 14.8089 15.9202 15.2883 15.4389L15.3646 15.3646C15.8218 14.9055 16.1793 14.4517 16.2249 14.3938C16.2271 14.391 16.2286 14.3892 16.2293 14.3883C16.4191 14.1417 16.423 13.7974 16.2352 13.5489L15.4017 12.4396C15.615 12.0424 15.7911 11.6276 15.928 11.1991L17.3289 11.0074C17.638 10.9643 17.8826 10.7198 17.9217 10.4087C17.9257 10.3833 18 9.78652 18 9.10761V9C18 8.32109 17.9257 7.72239 17.9217 7.69891C17.8826 7.38978 17.64 7.14522 17.3328 7.10022L15.9574 6.90457C15.8283 6.47413 15.66 6.05739 15.4507 5.65826L16.3076 4.52935C16.4974 4.28087 16.4954 3.93652 16.3057 3.68804C16.3049 3.68715 16.3035 3.68531 16.3013 3.68256C16.256 3.62505 15.8982 3.17107 15.4389 2.71174L15.3646 2.63543C14.9055 2.17824 14.4518 1.82071 14.3938 1.77507C14.391 1.77285 14.3892 1.77138 14.3883 1.77065C14.1417 1.58087 13.7974 1.57891 13.5489 1.76478L12.4376 2.60022C12.0404 2.38696 11.6276 2.21283 11.1991 2.07587L11.0074 0.671087C10.9643 0.361957 10.7198 0.119348 10.4087 0.0782609C10.4062 0.0780669 10.398 0.0771426 10.3848 0.0756346C10.2642 0.0619278 9.71923 0 9.10761 0H9C8.38131 0 7.82923 0.0633678 7.71839 0.0760904C7.7076 0.0773288 7.701 0.0780873 7.69891 0.0782609C7.38978 0.117391 7.14522 0.36 7.10022 0.66913L6.90652 2.04457C6.47609 2.1737 6.05935 2.34196 5.66022 2.54935L4.52935 1.69239C4.28087 1.50261 3.93457 1.50457 3.68804 1.6963C3.66848 1.71 3.19304 2.07978 2.71174 2.56109L2.63543 2.63543C2.17825 3.09449 1.82073 3.5482 1.77507 3.60615C1.77286 3.60896 1.77138 3.61083 1.77065 3.61174C1.58087 3.85826 1.57891 4.20261 1.76478 4.45109L2.60022 5.56239C2.38696 5.95761 2.21087 6.37239 2.07587 6.80087L0.671087 6.99261C0.361957 7.03565 0.119348 7.28022 0.0782609 7.5913C0.0780669 7.59383 0.0771426 7.60196 0.0756344 7.61523C0.0619275 7.73584 0 8.28077 0 8.89239V9C0 9.61869 0.0633675 10.1708 0.0760903 10.2816C0.0773287 10.2924 0.0780873 10.299 0.0782609 10.3011C0.119348 10.6122 0.36 10.8548 0.66913 10.8998L2.04065 11.0935C2.16978 11.5259 2.33804 11.9426 2.54543 12.3417L1.69239 13.4707C1.50261 13.7191 1.50457 14.0654 1.6963 14.312C1.69709 14.3129 1.69877 14.3151 1.70131 14.3183C1.74923 14.3793 2.10398 14.8312 2.56109 15.2883L2.63543 15.3646C3.0945 15.8218 3.54823 16.1793 3.60615 16.2249C3.60896 16.2271 3.61084 16.2286 3.61174 16.2293C3.85826 16.4191 4.20261 16.4211 4.45109 16.2352L5.55848 15.4037C5.95565 15.617 6.37043 15.793 6.80087 15.93L6.99261 17.3289C7.03565 17.638 7.28217 17.8807 7.5913 17.9217C7.59382 17.9219 7.60193 17.9229 7.61517 17.9244ZM9 13C11.2091 13 13 11.2091 13 9C13 6.79086 11.2091 5 9 5C6.79086 5 5 6.79086 5 9C5 11.2091 6.79086 13 9 13Z" fill="#0080FF"/>
</svg>
